<svg width="1024" height="1024" viewBox="0 0 1024 1024" xmlns="http://www.w3.org/2000/svg">
  <defs>
    <radialGradient id="bgGlow" cx="50%" cy="30%" r="70%">
      <stop offset="0%" stop-color="#0f2c3f"/>
      <stop offset="55%" stop-color="#0b1826"/>
      <stop offset="100%" stop-color="#09111c"/>
    </radialGradient>
    <linearGradient id="ringGrad" x1="140" y1="110" x2="900" y2="930" gradientUnits="userSpaceOnUse">
      <stop offset="0%" stop-color="#22d3ee"/>
      <stop offset="100%" stop-color="#34d399"/>
    </linearGradient>
    <linearGradient id="helixA" x1="306" y1="160" x2="744" y2="884" gradientUnits="userSpaceOnUse">
      <stop offset="0%" stop-color="#7dd3fc"/>
      <stop offset="100%" stop-color="#34d399"/>
    </linearGradient>
    <linearGradient id="helixB" x1="730" y1="160" x2="292" y2="884" gradientUnits="userSpaceOnUse">
      <stop offset="0%" stop-color="#34d399"/>
      <stop offset="100%" stop-color="#22d3ee"/>
    </linearGradient>
    <filter id="softGlow" x="-30%" y="-30%" width="160%" height="160%">
      <feGaussianBlur stdDeviation="20" result="blur"/>
      <feMerge>
        <feMergeNode in="blur"/>
        <feMergeNode in="SourceGraphic"/>
      </feMerge>
    </filter>
  </defs>

  <rect width="1024" height="1024" rx="224" fill="url(#bgGlow)"/>
  <rect x="64" y="64" width="896" height="896" rx="196" fill="none" stroke="url(#ringGrad)" stroke-opacity="0.85" stroke-width="22"/>
  <circle cx="512" cy="512" r="356" fill="none" stroke="rgba(148,163,184,0.28)" stroke-width="12"/>

  <path d="M352 170 C 560 298 560 726 352 854" fill="none" stroke="url(#helixA)" stroke-width="58" stroke-linecap="round" filter="url(#softGlow)"/>
  <path d="M672 170 C 464 298 464 726 672 854" fill="none" stroke="url(#helixB)" stroke-width="58" stroke-linecap="round" filter="url(#softGlow)"/>

  <g stroke-linecap="round" stroke-width="24">
    <path d="M408 240 H 616" stroke="rgba(186,230,253,0.9)"/>
    <path d="M376 340 H 648" stroke="rgba(125,211,252,0.92)"/>
    <path d="M392 440 H 632" stroke="rgba(110,231,183,0.92)"/>
    <path d="M376 540 H 648" stroke="rgba(125,211,252,0.92)"/>
    <path d="M392 640 H 632" stroke="rgba(110,231,183,0.92)"/>
    <path d="M376 740 H 648" stroke="rgba(153,246,228,0.9)"/>
    <path d="M408 840 H 616" stroke="rgba(186,230,253,0.88)"/>
  </g>

  <circle cx="512" cy="512" r="108" fill="rgba(34,211,238,0.16)" stroke="rgba(186,230,253,0.75)" stroke-width="14"/>
  <circle cx="512" cy="512" r="36" fill="#99f6e4"/>
</svg>
